<?xml version="1.0" encoding="UTF-8"?>
<svg xmlns="http://www.w3.org/2000/svg" xmlns:xlink="http://www.w3.org/1999/xlink" width="21px" height="21px" viewBox="0 0 21 21" version="1.1">
<g id="surface1">
<path style=" stroke:none;fill-rule:nonzero;fill:rgb(100%,100%,100%);fill-opacity:1;" d="M 2.5625 3.140625 C 2.253906 3.140625 1.964844 3.191406 1.6875 3.292969 C 1.191406 3.46875 0.78125 3.785156 0.460938 4.234375 C 0.152344 4.675781 0 5.164062 0 5.703125 L 0 15.296875 C 0 15.996094 0.25 16.601562 0.746094 17.113281 C 1.253906 17.609375 1.863281 17.859375 2.5625 17.859375 C 3.277344 17.859375 3.882812 17.609375 4.378906 17.113281 C 4.890625 16.601562 5.148438 15.996094 5.148438 15.296875 L 5.148438 13.550781 C 5.152344 13.175781 5.542969 13.273438 5.738281 13.550781 C 6.105469 14.191406 6.886719 14.738281 7.796875 14.734375 C 8.707031 14.730469 9.460938 14.28125 9.855469 13.550781 C 10.003906 13.375 10.425781 13.074219 10.46875 13.550781 L 10.46875 15.296875 C 10.46875 15.996094 10.71875 16.601562 11.214844 17.113281 C 11.722656 17.609375 12.332031 17.859375 13.03125 17.859375 C 13.746094 17.859375 14.351562 17.609375 14.847656 17.113281 C 15.359375 16.601562 15.617188 15.996094 15.617188 15.296875 L 15.617188 5.703125 C 15.617188 5.164062 15.453125 4.675781 15.132812 4.234375 C 14.828125 3.785156 14.425781 3.46875 13.929688 3.292969 C 13.636719 3.191406 13.34375 3.140625 13.054688 3.140625 C 12.265625 3.140625 11.601562 3.449219 11.058594 4.0625 L 8.460938 7.105469 C 8.402344 7.148438 8.207031 7.484375 7.796875 7.484375 C 7.386719 7.484375 7.214844 7.148438 7.15625 7.105469 L 4.535156 4.0625 C 4.007812 3.449219 3.351562 3.140625 2.5625 3.140625 Z M 18.765625 3.140625 C 18.152344 3.140625 17.628906 3.359375 17.1875 3.796875 C 16.765625 4.222656 16.554688 4.738281 16.554688 5.351562 C 16.554688 5.964844 16.765625 6.492188 17.1875 6.929688 C 17.628906 7.355469 18.152344 7.566406 18.765625 7.566406 C 19.378906 7.566406 19.90625 7.355469 20.34375 6.929688 C 20.78125 6.492188 21 5.964844 21 5.351562 C 21 4.738281 20.78125 4.222656 20.34375 3.796875 C 19.90625 3.359375 19.378906 3.140625 18.765625 3.140625 Z M 18.789062 8.003906 C 18.175781 8.003906 17.648438 8.222656 17.210938 8.660156 C 16.773438 9.097656 16.554688 9.625 16.554688 10.238281 L 16.554688 15.648438 C 16.554688 16.261719 16.773438 16.785156 17.210938 17.222656 C 17.648438 17.648438 18.175781 17.859375 18.789062 17.859375 C 19.402344 17.859375 19.917969 17.648438 20.34375 17.222656 C 20.78125 16.785156 21 16.261719 21 15.648438 L 21 10.238281 C 21 9.625 20.78125 9.097656 20.34375 8.660156 C 19.917969 8.222656 19.402344 8.003906 18.789062 8.003906 Z M 18.789062 8.003906 "/>
</g>
</svg>
